# xmcd
# Copyright (c) 1998 CDDB Inc.
#
# Track frame offsets:
#	150
#	25628
#	45192
#	68316
#	94611
#	139339
#
# Disc length: 2218 seconds
#
# Revision: 1
# Processed by: cddbd v1.5.1PL0 Copyright (c) Steve Scherf et al.
# Submitted via: AudioCatalyst 2.10full
#
DISCID=3b08a806
DTITLE=O.H. Radish - Black Robots CD
DYEAR=1900
DGENRE=
TTITLE0=Kukaracha
TTITLE1=Dzhinn illjuziy
TTITLE2=Novosti
TTITLE3=Rita
TTITLE4=Kitajskij blues
TTITLE5=Zhaba
EXTD=2003
EXTT0=
EXTT1=
EXTT2=
EXTT3=
EXTT4=
EXTT5=
PLAYORDER=
